# xmcd
#
# Track frame offsets:
#	150
#	34659
#	64194
#	67395
#	95169
#	97617
#	124457
#	154490
#	174260
#	200769
#	226207
#	252188
#	294206
#
# Disc length: 4279 seconds
#
# Revision: 1
# Processed by: cddbd v1.5.2PL0 Copyright (c) Steve Scherf et al.
# Submitted via: audiograbber 1.83.01
#
DISCID=bb10b50d
DTITLE=Grateful Dead - 71-07-31A Yale Bowl, New Haven CT
DYEAR=1900
DGENRE=
TTITLE0=Hard To Handle
TTITLE1=Loser
TTITLE2=Crowd and Stage Banter
TTITLE3=Me and Bobby McGee
TTITLE4=Intro
TTITLE5=Bertha
TTITLE6=Big Boss Man
TTITLE7=Me and My Uncle
TTITLE8=Deal
TTITLE9=China Cat Sunflower
TTITLE10=I Know You Rider
TTITLE11=Sing Me Back Home
TTITLE12=Sugar Magnolia
EXTD=
EXTT0=
EXTT1=
EXTT2=
EXTT3=
EXTT4=
EXTT5=
EXTT6=
EXTT7=
EXTT8=
EXTT9=
EXTT10=
EXTT11=
EXTT12=
PLAYORDER=
